<svg width="409" height="409" viewBox="0 0 409 409" fill="none" xmlns="http://www.w3.org/2000/svg">
<g clip-path="url(#clip0_13_4)">
<path opacity="0.31" d="M204.496 408.993C317.436 408.993 408.993 317.436 408.993 204.496C408.993 91.5561 317.436 0 204.496 0C91.5561 0 0 91.5561 0 204.496C0 317.436 91.5561 408.993 204.496 408.993Z" fill="white"/>
<path d="M77.6826 330.406L380.621 330.406V119.626L77.6826 119.626V330.406Z" fill="#A3EEFF" stroke="#F7F7F7" stroke-miterlimit="10"/>
<path d="M371.108 302.488V129.134L87.1798 129.134V302.488H371.108Z" fill="white"/>
<path d="M229.176 321.023C232.327 321.014 234.875 318.452 234.867 315.3C234.858 312.147 232.297 309.599 229.146 309.607C225.995 309.615 223.447 312.177 223.455 315.33C223.463 318.482 226.025 321.031 229.176 321.023Z" fill="#66CDDD"/>
<path d="M270.004 386.827H188.291C188.164 386.827 188.067 386.73 188.067 386.602V382.615C188.067 382.615 188.067 382.585 188.067 382.57L197.033 334.91C197.056 334.805 197.145 334.73 197.25 334.73H261.023C261.128 334.73 261.225 334.805 261.24 334.91L270.206 382.57C270.206 382.57 270.206 382.6 270.206 382.615V386.602C270.206 386.73 270.109 386.827 269.982 386.827H270.004ZM188.516 386.378H269.78V382.638L260.851 335.179H197.444L188.516 382.638V386.378Z" fill="white"/>
<path d="M270.004 391.809H188.291C188.164 391.809 188.067 391.712 188.067 391.585C188.067 391.457 188.164 391.36 188.291 391.36H270.004C270.132 391.36 270.229 391.457 270.229 391.585C270.229 391.712 270.132 391.809 270.004 391.809Z" fill="white"/>
<path d="M144.163 262.069L138.195 260.356C138.495 257.296 138.547 254.244 138.36 251.237L144.38 249.733L139.295 229.348L133.26 230.851C131.996 228.083 130.523 225.42 128.84 222.877L133.312 218.553L118.715 203.441L114.25 207.75C111.798 206 109.188 204.429 106.428 203.06L108.141 197.09L87.9425 191.308L86.23 197.277C83.164 196.978 80.1204 196.933 77.1067 197.12L75.6036 191.098L55.2183 196.185L56.7214 202.222C53.9545 203.486 51.2848 204.968 48.7498 206.643L44.4274 202.17L29.3142 216.772L33.6216 221.231C31.8717 223.685 30.2938 226.295 28.9253 229.056L22.9578 227.343L17.1697 247.541L23.1373 249.254C22.8381 252.314 22.7858 255.366 22.9727 258.373L16.9529 259.877L22.038 280.262L28.0728 278.759C29.3366 281.526 30.8098 284.19 32.4924 286.733L28.0205 291.057L42.6177 306.168L47.0822 301.859C49.535 303.61 52.1448 305.181 54.9042 306.55L53.1918 312.52L73.3901 318.302L75.1026 312.333C78.1686 312.632 81.2122 312.677 84.2259 312.49L85.729 318.512L106.114 313.425L104.611 307.388C107.378 306.123 110.048 304.642 112.583 302.967L116.905 307.44L132.018 292.838L127.711 288.379C129.461 285.925 131.039 283.314 132.407 280.554L138.375 282.267L144.163 262.069ZM115.985 266.191C110.033 284.698 90.4626 295.553 71.6178 290.803C50.8062 285.551 38.7815 263.872 45.3547 243.434C51.3073 224.926 70.8775 214.072 89.7223 218.822C110.534 224.074 122.559 245.753 115.985 266.191Z" fill="white" stroke="#98D1F4" stroke-miterlimit="10"/>
<path d="M80.6663 301.007C76.4337 301.007 72.1562 300.423 67.9311 299.211C56.0708 295.815 46.2446 288.005 40.2621 277.21C34.2796 266.423 32.8588 253.945 36.2613 242.087C39.3273 231.39 46.1474 222.159 55.4651 216.099C64.6931 210.099 75.7457 207.571 86.5965 208.992C86.7161 209.007 86.8058 209.119 86.7909 209.239C86.7759 209.359 86.6638 209.449 86.5441 209.434C64.3117 206.531 42.8794 220.625 36.6951 242.215C33.3299 253.96 34.7358 266.318 40.6585 277.001C46.5811 287.683 56.3101 295.426 68.0582 298.785C88.0921 304.523 109.472 296.009 120.053 278.078C120.113 277.973 120.255 277.936 120.36 277.996C120.465 278.055 120.502 278.198 120.442 278.302C111.992 292.628 96.7069 300.999 80.6738 300.999L80.6663 301.007Z" fill="#66CDDD"/>
<path d="M264.276 318.774L295.968 313.021L253.822 300.341C245.992 282.738 243.39 266.116 243.39 266.116C243.39 266.116 250.92 265.69 261.719 266.774L280.937 299.084L279.173 269.639C288.109 271.719 297.629 274.966 306.341 280.015C307.567 280.726 308.741 281.467 309.87 282.23L313.849 326.763L325.432 298.553C332.895 311.405 332.342 325.417 325.701 333.526C315.509 345.974 289.313 346.729 269.429 325.095C267.597 323.098 265.877 320.98 264.276 318.774Z" fill="#66CDDD"/>
<path d="M261.726 266.782C266.938 267.305 272.913 268.188 279.18 269.647L280.945 299.091L261.726 266.782Z" fill="#A3EEFF"/>
<path d="M309.87 282.23C316.877 286.965 322 292.636 325.432 298.545L313.849 326.756L309.87 282.222V282.23Z" fill="#A3EEFF"/>
<path d="M264.276 318.774C260.051 312.976 256.604 306.595 253.822 300.341L295.968 313.021L264.276 318.774Z" fill="#A3EEFF"/>
<path d="M334.548 375.98C334.436 375.98 334.346 375.897 334.331 375.793C331.804 359.365 325.552 343.498 316.242 329.913C308.532 318.661 298.885 309.011 287.563 301.239C287.458 301.171 287.436 301.029 287.503 300.924C287.571 300.82 287.713 300.797 287.817 300.864C299.184 308.667 308.868 318.355 316.608 329.658C325.956 343.303 332.23 359.23 334.765 375.725C334.787 375.845 334.698 375.965 334.578 375.98C334.563 375.98 334.555 375.98 334.54 375.98H334.548Z" fill="#363E44"/>
<path d="M320.392 308.764L340.516 317.936L320.773 291.783C322.366 276.454 326.621 263.969 326.621 263.969C326.621 263.969 331.078 266.789 336.889 272.011L336.732 302.144L345.892 281.205C350.289 286.329 354.619 292.501 357.857 299.578C358.313 300.573 358.732 301.568 359.114 302.555L346.012 334.768L362.389 320.202C362.224 332.112 357.072 341.5 350.461 344.321C340.329 348.645 325.073 338.314 321.162 315.235C320.803 313.103 320.549 310.941 320.392 308.764Z" fill="#66CDDD"/>
<path d="M336.889 272.018C339.693 274.539 342.804 277.621 345.892 281.212L336.732 302.151L336.889 272.018Z" fill="#A3EEFF"/>
<path d="M359.106 302.563C361.484 308.719 362.456 314.726 362.381 320.21L346.004 334.775L359.106 302.563Z" fill="#A3EEFF"/>
<path d="M320.392 308.764C319.981 303.034 320.205 297.229 320.773 291.783L340.516 317.936L320.392 308.764Z" fill="#A3EEFF"/>
<path d="M340.942 377.199C340.942 377.199 340.897 377.199 340.867 377.184C340.747 377.147 340.688 377.019 340.725 376.9C344.95 364.579 346.849 351.098 346.214 337.925C345.69 327.01 343.499 316.395 339.7 306.37C339.656 306.258 339.715 306.123 339.828 306.079C339.94 306.034 340.074 306.094 340.119 306.206C343.933 316.268 346.132 326.935 346.655 337.895C347.291 351.128 345.384 364.669 341.144 377.042C341.114 377.132 341.024 377.191 340.934 377.191L340.942 377.199Z" fill="#363E44"/>
<path d="M313.893 383.932H365.612V359.395H313.893V383.932Z" fill="#363E44"/>
<path d="M318.014 40.1347H102.114V110.649H318.014V40.1347Z" fill="white"/>
<path d="M323.264 114.943H107.363C107.244 114.943 107.139 114.846 107.139 114.719V44.8177C107.139 44.698 107.236 44.5933 107.363 44.5933H323.264C323.391 44.5933 323.488 44.6905 323.488 44.8177V114.719C323.488 114.846 323.391 114.943 323.264 114.943ZM107.58 114.494H323.039V45.0421H107.58V114.494Z" fill="#66CDDD"/>
<path d="M258.496 58.8443H222.631C222.504 58.8443 222.406 58.747 222.406 58.6199C222.406 58.4927 222.504 58.3954 222.631 58.3954H258.496C258.623 58.3954 258.72 58.4927 258.72 58.6199C258.72 58.747 258.623 58.8443 258.496 58.8443Z" fill="#66CDDD"/>
<path d="M201.64 58.8443H121.736C121.609 58.8443 121.512 58.747 121.512 58.6199C121.512 58.4927 121.609 58.3954 121.736 58.3954H201.64C201.767 58.3954 201.864 58.4927 201.864 58.6199C201.864 58.747 201.767 58.8443 201.64 58.8443Z" fill="#66CDDD"/>
<path d="M258.496 66.3326H164.623C164.496 66.3326 164.399 66.2354 164.399 66.1082C164.399 65.981 164.496 65.8838 164.623 65.8838H258.496C258.623 65.8838 258.72 65.981 258.72 66.1082C258.72 66.2354 258.623 66.3326 258.496 66.3326Z" fill="#66CDDD"/>
<path d="M153.458 66.3326H121.744C121.616 66.3326 121.519 66.2354 121.519 66.1082C121.519 65.981 121.616 65.8838 121.744 65.8838H153.458C153.585 65.8838 153.683 65.981 153.683 66.1082C153.683 66.2354 153.585 66.3326 153.458 66.3326Z" fill="#66CDDD"/>
<path d="M258.496 73.3497H222.631C222.504 73.3497 222.406 73.2524 222.406 73.1252C222.406 72.9981 222.504 72.9008 222.631 72.9008H258.496C258.623 72.9008 258.72 72.9981 258.72 73.1252C258.72 73.2524 258.623 73.3497 258.496 73.3497Z" fill="#66CDDD"/>
<path d="M201.64 73.3497H121.736C121.609 73.3497 121.512 73.2524 121.512 73.1252C121.512 72.9981 121.609 72.9008 121.736 72.9008H201.64C201.767 72.9008 201.864 72.9981 201.864 73.1252C201.864 73.2524 201.767 73.3497 201.64 73.3497Z" fill="#66CDDD"/>
<path d="M258.496 80.8455H190.856C190.729 80.8455 190.632 80.7482 190.632 80.621C190.632 80.4939 190.729 80.3966 190.856 80.3966H258.496C258.623 80.3966 258.72 80.4939 258.72 80.621C258.72 80.7482 258.623 80.8455 258.496 80.8455Z" fill="#66CDDD"/>
<path d="M174.449 80.8455H121.744C121.616 80.8455 121.519 80.7482 121.519 80.621C121.519 80.4939 121.616 80.3966 121.744 80.3966H174.449C174.576 80.3966 174.674 80.4939 174.674 80.621C174.674 80.7482 174.576 80.8455 174.449 80.8455Z" fill="#66CDDD"/>
<path d="M258.496 91.6104H175.773C175.646 91.6104 175.549 91.5131 175.549 91.386C175.549 91.2588 175.646 91.1615 175.773 91.1615H258.496C258.623 91.1615 258.72 91.2588 258.72 91.386C258.72 91.5131 258.623 91.6104 258.496 91.6104Z" fill="#66CDDD"/>
<path d="M258.496 99.0987H225.861C225.734 99.0987 225.637 99.0014 225.637 98.8743C225.637 98.7471 225.734 98.6498 225.861 98.6498H258.496C258.623 98.6498 258.72 98.7471 258.72 98.8743C258.72 99.0014 258.623 99.0987 258.496 99.0987Z" fill="#66CDDD"/>
<path d="M213.051 99.0987H167.607C167.48 99.0987 167.382 99.0014 167.382 98.8743C167.382 98.7471 167.48 98.6498 167.607 98.6498H213.051C213.178 98.6498 213.276 98.7471 213.276 98.8743C213.276 99.0014 213.178 99.0987 213.051 99.0987Z" fill="#66CDDD"/>
<path d="M277.886 63.1832L277.901 73.5666C277.901 79.3044 282.56 83.9425 288.288 83.935C294.017 83.935 298.653 79.2745 298.646 73.5367L298.631 63.1533L277.886 63.1832Z" fill="#363E44"/>
<path d="M288.229 68.0083C303.064 68.0083 315.09 55.971 315.09 41.1222C315.09 26.2734 303.064 14.2361 288.229 14.2361C273.393 14.2361 261.367 26.2734 261.367 41.1222C261.367 55.971 273.393 68.0083 288.229 68.0083Z" fill="#A3EEFF" stroke="#F7F7F7" stroke-miterlimit="10"/>
<path d="M288.206 77.3369C284.669 77.3369 278.103 77.0003 278.103 75.7061C278.103 75.5789 278.2 75.4817 278.328 75.4817C278.447 75.4817 278.552 75.5789 278.552 75.7061C278.657 76.1325 281.954 76.8956 288.176 76.8956C288.206 76.8956 288.244 76.8956 288.273 76.8956C294.563 76.8881 297.898 76.1101 297.995 75.6837C297.995 75.564 298.092 75.4592 298.219 75.4592C298.339 75.4592 298.444 75.564 298.444 75.6837C298.444 76.9853 291.796 77.3369 288.273 77.3444H288.206V77.3369Z" fill="white"/>
<path d="M288.199 72.7886C284.662 72.7886 278.096 72.4519 278.096 71.1578C278.096 71.0381 278.193 70.9333 278.32 70.9333C278.44 70.9333 278.544 71.0306 278.544 71.1578C278.649 71.5842 281.984 72.3472 288.273 72.3472C294.563 72.3397 297.898 71.5617 297.995 71.1353C297.995 71.0081 298.092 70.9109 298.219 70.9109C298.339 70.9109 298.444 71.0156 298.444 71.1353C298.444 72.437 291.796 72.7886 288.273 72.7961H288.206L288.199 72.7886Z" fill="white"/>
<path d="M284.669 61.6945C284.579 61.6945 284.497 61.6421 284.467 61.5598L276.002 41.7132C275.957 41.601 276.002 41.4663 276.122 41.4214C276.234 41.3765 276.368 41.4214 276.413 41.5411L284.878 61.3878C284.923 61.5 284.878 61.6346 284.759 61.6795C284.729 61.6945 284.699 61.6945 284.669 61.6945Z" fill="#363E44"/>
<path d="M291.848 61.687C291.848 61.687 291.788 61.687 291.758 61.672C291.646 61.6272 291.594 61.4925 291.639 61.3803L300.051 41.5112C300.096 41.399 300.231 41.3466 300.343 41.3915C300.455 41.4364 300.508 41.571 300.463 41.6832L292.05 61.5524C292.013 61.6346 291.93 61.687 291.841 61.687H291.848Z" fill="#363E44"/>
<path d="M283.405 44.2417C282.358 44.2417 281.311 43.9873 280.399 43.4712C280.294 43.4113 280.257 43.2767 280.317 43.1644C280.377 43.0597 280.511 43.0223 280.623 43.0822C282.545 44.1744 285.095 43.9948 286.875 42.6932C285.275 41.8329 283.981 40.3816 283.428 38.6311C283.031 37.3743 283.069 36.1474 283.525 35.1749C284.078 34.0004 285.267 33.2523 286.426 33.372C287.772 33.5067 288.722 34.6887 289.156 35.7509C290.098 38.0476 289.485 40.8828 287.69 42.5884C288.662 42.9924 289.724 43.1794 290.786 43.0672C293.77 42.768 296.35 40.1871 296.656 37.1947C296.671 37.075 296.784 36.9853 296.903 36.9928C297.023 37.0077 297.113 37.1124 297.105 37.2396C296.776 40.4339 294.024 43.1869 290.831 43.5086C289.627 43.6283 288.416 43.4038 287.324 42.9026C286.224 43.7779 284.819 44.2342 283.413 44.2342L283.405 44.2417ZM286.187 33.8059C285.282 33.8059 284.355 34.4343 283.921 35.3619C283.517 36.2297 283.488 37.3444 283.846 38.4964C284.377 40.1946 285.664 41.5935 287.242 42.3864C289.006 40.8155 289.635 38.0999 288.73 35.9155C288.341 34.9729 287.518 33.9256 286.367 33.8134C286.307 33.8134 286.239 33.8059 286.18 33.8059H286.187Z" fill="white"/>
<path d="M64.723 107.986C64.723 107.986 69.2024 108.24 69.666 108.981C70.2194 109.864 68.1255 112.676 68.1255 112.676C68.1255 112.676 64.7903 107.941 64.723 107.993V107.986Z" fill="#F2E6DC"/>
<path d="M66.3906 116.574C65.8298 116.574 65.2913 116.305 64.9548 115.848C64.88 115.751 64.9025 115.609 64.9997 115.534C65.0969 115.459 65.239 115.482 65.3138 115.579C65.6129 115.983 66.1214 116.192 66.615 116.103C67.1235 116.013 67.5422 115.624 67.6694 115.115C67.6993 114.995 67.8189 114.921 67.9386 114.951C68.0582 114.981 68.133 115.1 68.1031 115.22C67.9311 115.901 67.3777 116.409 66.6972 116.537C66.6 116.551 66.4953 116.566 66.3906 116.566V116.574Z" fill="#F2E6DC"/>
<path d="M43.8591 111.921C43.7394 111.921 43.6422 111.831 43.6347 111.711C43.6273 111.592 43.7245 111.479 43.8441 111.472L49.4228 111.128C49.5499 111.128 49.6546 111.218 49.6621 111.337C49.6696 111.457 49.5724 111.569 49.4527 111.577L43.874 111.921C43.874 111.921 43.8666 111.921 43.8591 111.921Z" fill="#F2E6DC"/>
<path d="M389.482 134.311H181.621V250.099H389.482V134.311Z" fill="white"/>
<path d="M394.53 255.254H186.668C186.541 255.254 186.444 255.157 186.444 255.029V139.248C186.444 139.121 186.541 139.024 186.668 139.024H394.53C394.657 139.024 394.754 139.121 394.754 139.248V255.037C394.754 255.164 394.657 255.261 394.53 255.261V255.254ZM186.893 254.805H394.306V139.473H186.893V254.812V254.805Z" fill="#66CDDD"/>
<path d="M308.935 155.385H198.82V234.524H308.935V155.385Z" fill="#A3EEFF" stroke="#F7F7F7" stroke-miterlimit="10"/>
<path d="M254.271 208.469C264.885 208.469 273.489 199.858 273.489 189.235C273.489 178.613 264.885 170.002 254.271 170.002C243.656 170.002 235.052 178.613 235.052 189.235C235.052 199.858 243.656 208.469 254.271 208.469Z" fill="#66CDDD"/>
<path d="M265.592 189.235L247.503 178.777V199.694L265.592 189.235Z" fill="white"/>
<path d="M304.082 222.151H204.466V227.313H304.082V222.151Z" fill="#66CDDD"/>
<path d="M364.042 182.173H325.649C320.07 182.173 315.531 177.633 315.531 172.052C315.531 166.471 320.07 161.908 325.649 161.908H364.042C369.62 161.908 374.16 166.449 374.16 172.029C374.16 177.61 369.62 182.173 364.042 182.173ZM325.649 162.349C320.317 162.349 315.972 166.688 315.972 172.029C315.972 177.371 320.31 181.725 325.649 181.725H364.042C369.374 181.725 373.718 177.386 373.718 172.044C373.718 166.703 369.381 162.349 364.042 162.349H325.649Z" fill="#66CDDD"/>
<path d="M364.027 195.003H325.657C320.184 195.003 315.748 199.441 315.748 204.915C315.748 210.39 320.184 214.827 325.657 214.827H364.027C369.499 214.827 373.935 210.39 373.935 204.915C373.935 199.441 369.499 195.003 364.027 195.003Z" fill="#66CDDD"/>
<path d="M357.341 234.345C357.341 234.345 357.296 234.345 357.274 234.337C357.184 234.307 357.124 234.233 357.117 234.135L355.27 202.903C355.27 202.813 355.315 202.723 355.397 202.686C355.479 202.649 355.576 202.663 355.644 202.723L378.699 223.849C378.766 223.909 378.788 224.006 378.759 224.096C378.729 224.178 378.646 224.238 378.549 224.238L365.694 224.343L357.513 234.27C357.468 234.322 357.409 234.352 357.341 234.352V234.345ZM355.748 203.427L357.528 233.537L365.41 223.969C365.455 223.917 365.515 223.887 365.582 223.887L377.973 223.789L355.748 203.419V203.427Z" fill="#363E44"/>
<path opacity="0.5" d="M97.507 2.13953H192.711V28.2402H183.737V47.3911L164.593 28.2402H97.507V2.13953Z" fill="white"/>
<path d="M180.791 50.5555C180.731 50.5555 180.679 50.5331 180.634 50.4882L161.55 31.4046H94.5606C94.4335 31.4046 94.3363 31.3073 94.3363 31.1802V5.0795C94.3363 4.95232 94.4335 4.85507 94.5606 4.85507H189.764C189.892 4.85507 189.989 4.95232 189.989 5.0795V31.1876C189.989 31.3073 189.892 31.4121 189.764 31.4121H181.015V50.3386C181.015 50.4284 180.963 50.5106 180.88 50.5481C180.851 50.563 180.821 50.563 180.798 50.563L180.791 50.5555ZM94.785 30.9632H161.647C161.707 30.9632 161.766 30.9856 161.804 31.0305L180.566 49.7925V31.1876C180.566 31.0605 180.664 30.9632 180.791 30.9632H189.54V5.30392H94.785V30.9632Z" fill="#66CDDD"/>
<path d="M178.659 14.8944L174.419 15.433L177.426 18.4702L176.625 22.6669L180.447 20.7519L184.193 22.8091L183.55 18.5824L186.661 15.6574L182.443 14.9617L180.626 11.0941L178.659 14.8944Z" fill="#66CDDD"/>
<path d="M160.989 14.8944L156.749 15.433L159.755 18.4702L158.955 22.6669L162.768 20.7519L166.515 22.8091L165.872 18.5824L168.99 15.6574L164.773 14.9617L162.948 11.0941L160.989 14.8944Z" fill="#66CDDD"/>
<path d="M143.31 14.8944L139.07 15.433L142.077 18.4702L141.276 22.6669L145.098 20.7519L148.844 22.8091L148.201 18.5824L151.312 15.6574L147.094 14.9617L145.277 11.0941L143.31 14.8944Z" fill="#66CDDD"/>
<path d="M125.64 14.8944L121.4 15.433L124.406 18.4702L123.606 22.6669L127.419 20.7519L131.166 22.8091L130.523 18.5824L133.634 15.6574L129.424 14.9617L127.599 11.0941L125.64 14.8944Z" fill="#66CDDD"/>
<path d="M107.961 14.8944L103.721 15.433L106.728 18.4702L105.927 22.6669L109.749 20.7519L113.495 22.8091L112.845 18.5824L115.963 15.6574L111.745 14.9617L109.928 11.0941L107.961 14.8944Z" fill="#66CDDD"/>
</g>
<defs>
<clipPath id="clip0_13_4">
<rect width="409" height="409" fill="white"/>
</clipPath>
</defs>
</svg>
