<svg width="25" height="21" viewBox="0 0 25 21" fill="none" xmlns="http://www.w3.org/2000/svg">
<path d="M12.0094 5.11758C8.60223 5.11758 5.85402 7.52227 5.85402 10.5035C5.85402 13.4848 8.60223 15.8895 12.0094 15.8895C15.4165 15.8895 18.1647 13.4848 18.1647 10.5035C18.1647 7.52227 15.4165 5.11758 12.0094 5.11758ZM12.0094 14.0051C9.80759 14.0051 8.00759 12.4348 8.00759 10.5035C8.00759 8.57227 9.80223 7.00195 12.0094 7.00195C14.2165 7.00195 16.0112 8.57227 16.0112 10.5035C16.0112 12.4348 14.2112 14.0051 12.0094 14.0051ZM19.8522 4.89727C19.8522 5.5957 19.2094 6.15352 18.4165 6.15352C17.6183 6.15352 16.9808 5.59102 16.9808 4.89727C16.9808 4.20352 17.6237 3.64102 18.4165 3.64102C19.2094 3.64102 19.8522 4.20352 19.8522 4.89727ZM23.929 6.17227C23.8379 4.48945 23.3987 2.99883 21.9897 1.7707C20.5862 0.542578 18.8826 0.158203 16.9594 0.0738281C14.9772 -0.0246094 9.03616 -0.0246094 7.05402 0.0738281C5.13616 0.153516 3.43259 0.537891 2.02366 1.76602C0.614732 2.99414 0.180804 4.48477 0.084375 6.16758C-0.028125 7.90195 -0.028125 13.1004 0.084375 14.8348C0.175446 16.5176 0.614732 18.0082 2.02366 19.2363C3.43259 20.4645 5.1308 20.8488 7.05402 20.9332C9.03616 21.0316 14.9772 21.0316 16.9594 20.9332C18.8826 20.8535 20.5862 20.4691 21.9897 19.2363C23.3933 18.0082 23.8326 16.5176 23.929 14.8348C24.0415 13.1004 24.0415 7.90664 23.929 6.17227ZM21.3683 16.6957C20.9504 17.6145 20.1415 18.3223 19.0862 18.6926C17.5058 19.241 13.7558 19.1145 12.0094 19.1145C10.2629 19.1145 6.50759 19.2363 4.93259 18.6926C3.88259 18.327 3.07366 17.6191 2.65045 16.6957C2.02366 15.3129 2.1683 12.0316 2.1683 10.5035C2.1683 8.97539 2.02902 5.68945 2.65045 4.31133C3.0683 3.39258 3.87723 2.68477 4.93259 2.31445C6.51295 1.76602 10.2629 1.89258 12.0094 1.89258C13.7558 1.89258 17.5112 1.7707 19.0862 2.31445C20.1362 2.68008 20.9451 3.38789 21.3683 4.31133C21.9951 5.69414 21.8504 8.97539 21.8504 10.5035C21.8504 12.0316 21.9951 15.3176 21.3683 16.6957Z" fill="#939393"/>
</svg>
