<svg width="26" height="21" viewBox="0 0 26 21" fill="none" xmlns="http://www.w3.org/2000/svg">
<path d="M0 13.0388C0 16.7835 1.60063 19.1296 4.48094 19.1296C7.02406 19.1296 8.37281 17.7105 10.855 13.5269L12.1306 11.3695C12.4678 10.8568 12.7197 10.3769 12.9919 9.93394C13.8084 11.3203 14.9053 13.3382 14.9053 13.3382C17.6272 18.1207 19.1547 19.1296 21.2794 19.1296C24.2361 19.1296 26 16.7794 26 13.1455C26 7.28022 22.7589 1.73901 18.5291 1.73901C16.4897 1.73901 14.7184 2.75128 12.6466 5.40991C11.1394 3.35503 9.47375 1.73901 7.34094 1.73901C3.315 1.73901 0 6.89468 0 13.0388ZM14.3244 7.88315C16.0672 5.33608 17.2047 4.5814 18.5656 4.5814C21.0803 4.5814 23.1879 8.93316 23.1879 13.1947C23.1879 15.1839 22.4372 16.2996 21.1737 16.2996C19.9469 16.2996 19.1831 15.5203 16.9813 12.0421C16.9813 12.0421 15.9778 10.4384 14.3244 7.88315ZM4.42 16.2996C3.11188 16.2996 2.51469 15.1716 2.51469 13.2275C2.51469 8.13335 4.72063 3.98175 7.51969 3.98175C8.86844 3.98175 10.0019 5.04487 11.375 7.18179C10.9931 7.7478 10.5991 8.37124 10.1847 9.0439L8.66125 11.6033C6.27656 15.4628 5.67531 16.2996 4.42 16.2996Z" fill="#939393"/>
</svg>
